<svg width="1706" height="1029" viewBox="0 0 1706 1029" fill="none" xmlns="http://www.w3.org/2000/svg">
<rect x="53.0518" y="53.6309" width="1599.53" height="921.582" rx="105.929" fill="white"/>
<mask id="mask0" mask-type="alpha" maskUnits="userSpaceOnUse" x="53" y="53" width="1600" height="923">
<rect x="79.534" y="80.1131" width="1546.56" height="868.617" rx="79.4467" stroke="black" stroke-width="52.9645"/>
</mask>
<g mask="url(#mask0)">
<path d="M1344.59 53.6309H1652.58V975.213H1344.59V53.6309Z" fill="#DF1F1F"/>
<path d="M361.037 975.213L53.0536 975.213L53.0536 53.6308L361.037 53.6309L361.037 975.213Z" fill="#1E8F4E"/>
<rect x="1006.81" y="53.6309" width="337.788" height="921.582" fill="#FF6F1E"/>
<rect x="708.756" y="53.6309" width="298.049" height="921.582" fill="#EEAE0E"/>
<rect x="361.037" y="53.6309" width="347.723" height="921.582" fill="#60AC0E"/>
</g>
<g clip-path="url(#clip0)">
<path d="M736.773 231.205C746.647 230.372 755.795 239.521 754.963 249.395C753.749 263.456 736.238 583.017 633.976 685.278C535.962 783.292 420.472 760.284 345.061 706.073C344.153 705.42 343.128 704.633 342.003 703.73L274.022 771.616C257.596 788.041 230.966 788.041 214.54 771.616C198.115 755.19 198.115 728.559 214.54 712.134L282.438 644.164C281.53 643.034 280.739 642.006 280.083 641.095C225.871 565.684 202.864 450.194 300.878 352.179C403.139 249.918 722.7 232.407 736.773 231.205Z" fill="#1E8F4E"/>
<path d="M597.732 575.392C599.483 579.332 600.359 582.835 600.359 585.9C600.359 592.029 597.841 597.284 592.806 601.662C587.99 605.821 582.407 607.901 576.058 607.901C571.899 607.901 567.958 606.807 564.237 604.617C560.515 602.209 557.669 598.707 555.699 594.109L538.295 555.36H426.974L409.57 594.109C407.6 598.707 404.754 602.209 401.032 604.617C397.529 606.807 393.589 607.901 389.21 607.901C382.862 607.901 377.17 605.821 372.135 601.662C367.099 597.284 364.582 592.029 364.582 585.9C364.582 582.835 365.458 579.332 367.209 575.392L455.871 389.2C458.28 383.946 461.892 380.006 466.708 377.379C471.524 374.533 476.669 373.11 482.142 373.11C487.834 373.11 493.088 374.533 497.904 377.379C502.72 380.224 506.442 384.165 509.069 389.2L597.732 575.392ZM444.378 516.612H520.891L482.799 431.233L444.378 516.612Z" fill="white"/>
</g>
<path d="M881.077 514.632C873.662 514.632 867.942 512.62 863.917 508.594C859.892 504.569 857.879 498.849 857.879 491.434V313.791C857.879 306.376 859.892 300.656 863.917 296.63C867.942 292.605 873.662 290.592 881.077 290.592H993.574C1009.25 290.592 1017.09 296.948 1017.09 309.66C1017.09 322.583 1009.25 329.045 993.574 329.045H906.183V381.479H987.218C1002.9 381.479 1010.73 387.941 1010.73 400.864C1010.73 413.576 1002.9 419.932 987.218 419.932H906.183V476.18H993.574C1009.25 476.18 1017.09 482.642 1017.09 495.565C1017.09 508.276 1009.25 514.632 993.574 514.632H881.077Z" fill="#4A4A4A"/>
<path d="M1149.22 517.492C1127.18 517.492 1107.91 512.831 1091.38 503.51C1074.86 494.188 1062.14 480.841 1053.25 463.468C1044.35 446.096 1039.9 425.758 1039.9 402.453C1039.9 379.149 1044.35 358.917 1053.25 341.756C1062.14 324.384 1074.86 311.037 1091.38 301.715C1107.91 292.393 1127.18 287.732 1149.22 287.732C1176.97 287.732 1200.91 295.359 1221.04 310.613C1224.22 313.155 1226.44 315.698 1227.71 318.24C1228.98 320.782 1229.62 323.96 1229.62 327.773C1229.62 333.282 1228.03 338.049 1224.85 342.074C1221.88 345.887 1218.18 347.794 1213.73 347.794C1210.76 347.794 1208.11 347.476 1205.78 346.841C1203.67 345.993 1201.23 344.616 1198.47 342.709C1190 337.201 1182.16 333.282 1174.96 330.951C1167.76 328.409 1160.02 327.138 1151.76 327.138C1131.42 327.138 1116.06 333.494 1105.68 346.205C1095.51 358.705 1090.43 377.454 1090.43 402.453C1090.43 452.876 1110.87 478.087 1151.76 478.087C1159.6 478.087 1167.01 476.921 1174 474.591C1181 472.049 1189.15 468.023 1198.47 462.515C1201.65 460.608 1204.3 459.337 1206.42 458.702C1208.54 457.854 1210.97 457.431 1213.73 457.431C1218.18 457.431 1221.88 459.443 1224.85 463.468C1228.03 467.282 1229.62 471.943 1229.62 477.451C1229.62 481.265 1228.88 484.548 1227.39 487.302C1226.12 489.845 1224 492.281 1221.04 494.612C1200.91 509.865 1176.97 517.492 1149.22 517.492Z" fill="#4A4A4A"/>
<path d="M1359.94 517.492C1337.69 517.492 1318.31 512.831 1301.78 503.51C1285.47 493.976 1272.86 480.629 1263.97 463.468C1255.07 446.096 1250.62 425.758 1250.62 402.453C1250.62 379.149 1255.07 358.917 1263.97 341.756C1272.86 324.384 1285.47 311.037 1301.78 301.715C1318.31 292.393 1337.69 287.732 1359.94 287.732C1382.18 287.732 1401.46 292.393 1417.77 301.715C1434.3 311.037 1447.01 324.384 1455.91 341.756C1464.81 358.917 1469.26 379.149 1469.26 402.453C1469.26 425.758 1464.81 446.096 1455.91 463.468C1447.01 480.629 1434.3 493.976 1417.77 503.51C1401.46 512.831 1382.18 517.492 1359.94 517.492ZM1359.94 479.04C1378.58 479.04 1393.2 472.472 1403.79 459.337C1414.6 446.202 1420 427.241 1420 402.453C1420 377.666 1414.7 358.811 1404.11 345.887C1393.52 332.752 1378.79 326.185 1359.94 326.185C1341.08 326.185 1326.36 332.752 1315.77 345.887C1305.38 358.811 1300.19 377.666 1300.19 402.453C1300.19 427.241 1305.49 446.202 1316.08 459.337C1326.68 472.472 1341.29 479.04 1359.94 479.04Z" fill="#4A4A4A"/>
<path d="M911.038 717.518C901.434 717.518 892.49 716.497 884.206 714.457C876.043 712.296 869.32 709.354 864.038 705.633C861.997 704.072 860.496 702.451 859.536 700.771C858.695 699.09 858.275 696.929 858.275 694.288C858.275 690.686 859.355 687.565 861.516 684.924C863.677 682.282 866.198 680.962 869.08 680.962C870.64 680.962 872.141 681.202 873.582 681.682C875.022 682.162 876.823 683.063 878.984 684.383C883.906 687.145 888.768 689.125 893.571 690.326C898.493 691.526 904.015 692.127 910.138 692.127C917.221 692.127 922.563 691.106 926.165 689.065C929.886 686.904 931.747 683.783 931.747 679.701C931.747 676.94 930.007 674.599 926.525 672.678C923.164 670.637 916.681 668.656 907.076 666.736C895.191 664.214 885.887 661.213 879.164 657.732C872.441 654.25 867.699 650.168 864.938 645.486C862.297 640.684 860.976 634.922 860.976 628.199C860.976 620.515 863.257 613.552 867.819 607.309C872.381 601.067 878.624 596.205 886.547 592.723C894.591 589.121 903.595 587.321 913.559 587.321C922.323 587.321 930.127 588.281 936.97 590.202C943.813 592.123 950.055 595.124 955.698 599.206C957.859 600.767 959.359 602.447 960.2 604.248C961.16 605.929 961.64 608.03 961.64 610.551C961.64 614.152 960.56 617.274 958.399 619.915C956.358 622.556 953.897 623.877 951.016 623.877C949.455 623.877 948.014 623.697 946.694 623.336C945.373 622.856 943.512 621.896 941.111 620.455C940.511 620.095 938.77 619.195 935.889 617.754C933.128 616.193 929.826 614.993 925.985 614.152C922.263 613.192 918.181 612.712 913.739 612.712C907.617 612.712 902.695 613.912 898.973 616.313C895.251 618.594 893.39 621.656 893.39 625.497C893.39 627.778 894.051 629.639 895.371 631.08C896.692 632.521 899.153 633.961 902.755 635.402C906.356 636.722 911.698 638.103 918.782 639.544C930.307 642.065 939.371 645.126 945.974 648.728C952.576 652.209 957.259 656.291 960.02 660.973C962.781 665.655 964.162 671.178 964.162 677.54C964.162 685.464 961.941 692.487 957.499 698.61C953.057 704.612 946.814 709.294 938.77 712.656C930.847 715.897 921.603 717.518 911.038 717.518Z" fill="#4A4A4A"/>
<path d="M1043.05 717.518C1030.32 717.518 1019.16 714.877 1009.55 709.594C1000.07 704.312 992.685 696.749 987.403 686.904C982.241 677.06 979.66 665.535 979.66 652.329C979.66 639.243 982.241 627.778 987.403 617.934C992.685 608.09 1000.07 600.526 1009.55 595.244C1019.16 589.962 1030.32 587.321 1043.05 587.321C1058.29 587.321 1071.68 591.342 1083.21 599.386C1085.25 600.827 1086.69 602.387 1087.53 604.068C1088.49 605.749 1088.97 607.91 1088.97 610.551C1088.97 614.272 1087.89 617.454 1085.73 620.095C1083.69 622.616 1081.16 623.877 1078.16 623.877C1076.36 623.877 1074.74 623.637 1073.3 623.156C1071.86 622.556 1070.18 621.656 1068.26 620.455C1064.06 617.934 1060.1 616.133 1056.37 615.053C1052.65 613.972 1048.81 613.432 1044.85 613.432C1034.16 613.432 1026.18 616.674 1020.9 623.156C1015.74 629.519 1013.15 639.243 1013.15 652.329C1013.15 665.535 1015.74 675.379 1020.9 681.862C1026.18 688.225 1034.16 691.406 1044.85 691.406C1048.45 691.406 1051.93 690.866 1055.29 689.786C1058.65 688.585 1062.98 686.784 1068.26 684.383C1070.78 683.063 1072.64 682.162 1073.84 681.682C1075.04 681.202 1076.48 680.962 1078.16 680.962C1081.16 680.962 1083.69 682.282 1085.73 684.924C1087.89 687.445 1088.97 690.566 1088.97 694.288C1088.97 696.809 1088.49 698.97 1087.53 700.771C1086.69 702.451 1085.25 704.012 1083.21 705.453C1071.68 713.496 1058.29 717.518 1043.05 717.518Z" fill="#4A4A4A"/>
<path d="M1162.46 717.518C1149.49 717.518 1138.21 714.877 1128.6 709.594C1119.12 704.192 1111.8 696.629 1106.64 686.904C1101.47 677.06 1098.89 665.535 1098.89 652.329C1098.89 639.123 1101.47 627.658 1106.64 617.934C1111.8 608.09 1119.12 600.526 1128.6 595.244C1138.21 589.962 1149.49 587.321 1162.46 587.321C1175.43 587.321 1186.65 589.962 1196.13 595.244C1205.74 600.526 1213.06 608.09 1218.1 617.934C1223.27 627.658 1225.85 639.123 1225.85 652.329C1225.85 665.535 1223.27 677.06 1218.1 686.904C1212.94 696.629 1205.56 704.192 1195.95 709.594C1186.47 714.877 1175.31 717.518 1162.46 717.518ZM1162.46 692.127C1172.06 692.127 1179.57 688.765 1184.97 682.042C1190.37 675.199 1193.07 665.295 1193.07 652.329C1193.07 639.364 1190.31 629.519 1184.79 622.796C1179.39 616.073 1171.94 612.712 1162.46 612.712C1152.86 612.712 1145.35 616.073 1139.95 622.796C1134.55 629.399 1131.85 639.243 1131.85 652.329C1131.85 665.415 1134.55 675.319 1139.95 682.042C1145.35 688.765 1152.86 692.127 1162.46 692.127Z" fill="#4A4A4A"/>
<path d="M1352.24 694.828C1354.41 698.069 1355.49 701.131 1355.49 704.012C1355.49 707.854 1353.87 711.095 1350.62 713.736C1347.5 716.257 1343.84 717.518 1339.64 717.518C1336.76 717.518 1334.06 716.858 1331.54 715.537C1329.01 714.216 1326.85 712.236 1325.05 709.594L1301.64 675.379C1299.96 672.978 1298.16 671.238 1296.24 670.157C1294.44 668.957 1292.28 668.356 1289.76 668.356H1278.05V700.59C1278.05 705.633 1276.61 709.654 1273.73 712.656C1270.85 715.537 1266.89 716.978 1261.85 716.978C1256.8 716.978 1252.78 715.537 1249.78 712.656C1246.9 709.654 1245.46 705.633 1245.46 700.59V604.248C1245.46 599.326 1246.78 595.544 1249.42 592.903C1252.06 590.262 1255.84 588.941 1260.76 588.941H1305.96C1321.33 588.941 1332.86 592.303 1340.54 599.026C1348.34 605.629 1352.24 615.233 1352.24 627.838C1352.24 637.443 1349.6 645.606 1344.32 652.329C1339.04 658.932 1331.6 663.374 1321.99 665.655C1325.95 666.255 1329.37 667.576 1332.26 669.617C1335.26 671.658 1338.2 674.719 1341.08 678.801L1352.24 694.828ZM1300.74 643.505C1308.07 643.505 1313.29 642.365 1316.41 640.084C1319.65 637.803 1321.27 634.081 1321.27 628.919C1321.27 623.637 1319.65 619.855 1316.41 617.574C1313.29 615.173 1308.07 613.972 1300.74 613.972H1277.69V643.505H1300.74Z" fill="#4A4A4A"/>
<path d="M1388.09 715.897C1383.16 715.897 1379.38 714.577 1376.74 711.935C1374.1 709.294 1372.78 705.513 1372.78 700.59V604.248C1372.78 599.326 1374.1 595.544 1376.74 592.903C1379.38 590.262 1383.16 588.941 1388.09 588.941H1450.39C1455.56 588.941 1459.46 590.022 1462.1 592.183C1464.74 594.344 1466.06 597.465 1466.06 601.547C1466.06 610.191 1460.84 614.513 1450.39 614.513H1405.01V638.643H1446.79C1457.24 638.643 1462.46 642.905 1462.46 651.429C1462.46 655.511 1461.14 658.632 1458.5 660.793C1455.86 662.954 1451.95 664.034 1446.79 664.034H1405.01V690.326H1450.39C1460.84 690.326 1466.06 694.648 1466.06 703.292C1466.06 707.373 1464.74 710.495 1462.1 712.656C1459.46 714.817 1455.56 715.897 1450.39 715.897H1388.09Z" fill="#4A4A4A"/>
<defs>
<clipPath id="clip0">
<rect width="572.016" height="572.016" fill="white" transform="translate(196.294 218.03)"/>
</clipPath>
</defs>
</svg>
