<svg xmlns="http://www.w3.org/2000/svg" width="24" height="24" viewBox="0 0 24 24">
    <g fill="none" fill-rule="evenodd">
        <g fill-rule="nonzero">
            <g>
                <path fill="#FFF" d="M19.123 13.145c-.077-2.55-.353-6.156-.837-8.749.017.453.023.873 0 1.196.06 1.25-.217 2.494-.799 3.603 0 .017-1.008 2.1-.92 6.352l-.037 4.785 2.217-1.895s.59-.856.376-5.292z" transform="translate(2 1)"/>
                <path fill="#152123" d="M20.16 13.104c-.057-1.848-.431-11.14-2.348-12.66-.062-.046-.133-.078-.208-.094h-.055c-.018-.006-.037-.01-.056-.012h-4.95c-.163.188-.466.542-.83 1.04h4.413c-.95 1.2-1.316 2.858-1.439 3.665h-4.98c-.126.335-.24.681-.343 1.04h5.778c.27-.001.494-.207.517-.476 0-.028.228-2.407 1.401-3.727.102 1.046.252 2.82.188 3.691-.002.033-.002.066 0 .098 0 .013.147 1.4-.693 3.067-.046.09-1.129 2.3-1.03 6.824l-.044 5.393H1.798c-.05-.066-.188-.307-.2-.99-.045-1.667 0-6.238 0-6.3 0-.062-.056-5.051 2.172-7.58h1.74c.09-.337.187-.686.313-1.04H1.267c.318-1.094 1.177-3.281 2.966-3.672H7.83C8.208.953 8.652.6 9.146.33H4.18c-.034 0-.067.004-.1.011C.96.96.13 5.276.094 5.453c-.029.152.012.308.11.427.099.119.245.188.4.188h1.863C.507 8.99.564 13.467.564 13.66c0 .193-.045 4.637 0 6.323.026.93.235 1.525.643 1.824.16.12.353.186.553.188.038.002.076.002.115 0h14.129c.064 0 .128-.014.188-.04.022-.009.043-.02.062-.035.03-.014.06-.03.086-.05l3.069-2.633c.303-.247.981-1.343.75-6.134zm-3.63 7.228l.038-4.785c-.089-4.252.92-6.333.92-6.352.583-1.108.86-2.352.802-3.603.019-.323.013-.743 0-1.196.483 2.593.752 6.205.837 8.75.214 4.435-.376 5.29-.376 5.29l-2.22 1.896z" transform="translate(2 1)"/>
                <path fill="#FFF" d="M4.94 9.07c.11-1.01.3-2.012.564-2.995H3.77c-2.228 2.53-2.174 7.531-2.172 7.58.002.049-.045 4.633 0 6.301.02.683.15.923.2.99h13.69l.044-5.394c-.094-4.524.985-6.733 1.03-6.823.84-1.668.696-3.054.694-3.067-.003-.033-.003-.066 0-.098.06-.865-.09-2.646-.188-3.691-1.173 1.316-1.4 3.698-1.401 3.727-.023.268-.248.474-.517.475H9.364c-.286.973-.434 1.982-.44 2.996H4.94z" transform="translate(2 1)"/>
                <path fill="#FFF" d="M9.706 5.036h4.981c.126-.807.49-2.466 1.439-3.665h-4.413c-.83 1.126-1.505 2.359-2.007 3.665zM7.83 1.37H4.233c-1.789.392-2.648 2.579-2.966 3.666H5.83c.433-1.3 1.072-2.661 2-3.665z" transform="translate(2 1)"/>
                <path fill="#4A9F40" d="M7.83 1.37c-.93 1.005-1.568 2.366-2 3.666-.12.353-.225.703-.315 1.04-.264.982-.453 1.983-.564 2.995h3.973c.006-1.014.154-2.023.44-2.996.102-.36.216-.706.342-1.04.502-1.305 1.177-2.538 2.007-3.664.364-.499.667-.854.83-1.04l.14-.15-3.247.007c-.098.043-.188.092-.286.141-.495.271-.941.623-1.32 1.042z" transform="translate(2 1)"/>
            </g>
        </g>
    </g>
</svg>
