<svg xmlns="http://www.w3.org/2000/svg" xmlns:xlink="http://www.w3.org/1999/xlink" width="24" height="24" viewBox="0 0 24 24">
    <defs>
        <path id="037k0zq8oa" d="M9.152 0C14.018.036 18 1.72 18 4.155v12.48l-.05.125c-1.002 2.488-4.027 3.664-8.95 3.664-4.858 0-7.868-1.145-8.91-3.567l-.04-.097-.05-.125V4.154L.005 4C.17 1.624 4.168 0 9 0zM1.384 14.416v1.943l.019.04c.8 1.693 3.232 2.613 7.406 2.64H9c4.29 0 6.785-.921 7.597-2.64l.018-.04v-1.616C15.027 15.901 12.22 16.615 9 16.615c-2.947 0-5.932-.983-7.616-2.2zm0-4.154v2.2c0 .025.128.226.404.481.37.342.914.703 1.572 1.028 1.58.783 3.564 1.26 5.64 1.26 4.26 0 7.538-1.387 7.614-2.721l.001-.047v-1.874c-1.589 1.16-4.396 1.874-7.615 1.874-2.947 0-5.932-.984-7.616-2.201zm15.231-3.825C15.015 7.6 12.19 8.308 9 8.308S2.985 7.6 1.385 6.436v1.872c0 .024.127.225.403.48.37.342.914.703 1.572 1.029 1.58.782 3.564 1.26 5.64 1.26 4.26 0 7.538-1.388 7.614-2.722l.001-.047zM9 1.385h-.148c-4.172.032-7.467 1.421-7.467 2.769 0 1.364 3.373 2.77 7.615 2.77s7.615-1.406 7.615-2.77S13.242 1.384 9 1.384z"/>
    </defs>
    <g fill="none" fill-rule="evenodd">
        <g>
            <g transform="translate(3 2)">
                <mask id="5964ggq40b" fill="#fff">
                    <use xlink:href="#037k0zq8oa"/>
                </mask>
                <use fill="#979797" fill-rule="nonzero" xlink:href="#037k0zq8oa"/>
                <g fill="#1A2C2E" mask="url(#5964ggq40b)">
                    <path d="M0 0H24V24H0z" transform="translate(-3 -2)"/>
                </g>
            </g>
        </g>
    </g>
</svg>
