<svg xmlns="http://www.w3.org/2000/svg" width="24" height="24" viewBox="0 0 24 24">
    <g fill="none" fill-rule="evenodd">
        <g>
            <g>
                <path d="M12.36 1.09c-3.68 0-5.88 2.32-5.88 6.2 0 2.7 2.69 5.62 7 5.62 3.32 0 5.31-2.1 5.31-5.62.03-3.19-3.11-6.2-6.43-6.2zm4.16 6.19c.003 1.605-1.078 3.01-2.63 3.42l-.34.08h-2l-.34-.08c-1.558-.402-2.645-1.81-2.64-3.42v-.91C8.59 4.783 9.665 3.404 11.2 3c.29-.081.59-.122.89-.12H13c.3 0 .6.04.89.12 1.552.41 2.633 1.815 2.63 3.42v.86zM22.64 1.47c-.542.568-.892 1.292-1 2.07-.09.64-.09 1.29-.13 1.94l-.1 1.92c.416-.057.839-.023 1.24.1-.04-2.007-.043-4.017-.01-6.03z" transform="translate(0 5)"/>
                <path fill="#59AA51" fill-rule="nonzero" d="M3.86 1.25c.1.578.147 1.164.14 1.75-.002.502-.039 1.003-.11 1.5h-.75V3.11.75c0-.22-.69-.09-.69.18v3.54h-.2c-.167.01-.333.01-.5 0-.14 0-.19-.14-.23-.27-.059-.186-.102-.377-.13-.57-.106-.49-.17-.989-.19-1.49-.04-.424 0-.851.12-1.26.05-.15-.22-.16-.3-.15C.94.74.68.82.63 1c-.122.45-.162.917-.12 1.38.018.511.082 1.02.19 1.52.027.222.091.439.19.64.18.29.55.28.85.3h.69c0 1.81.09 3.62.17 5.43 0 .79.08 1.58.14 2.36 0 .22.7.08.68-.18-.18-2.52-.25-5-.3-7.58h.91c.15 0 .44-.07.48-.25.105-.598.155-1.203.15-1.81.014-.609-.023-1.217-.11-1.82-.04-.17-.73.01-.69.26zM23.34.74c0-.15-.6.07-.65.12-.858.67-1.456 1.617-1.69 2.68-.086.663-.136 1.331-.15 2l-.11 2.15c0 .1.36 0 .37 0 .396-.069.804-.016 1.17.15.126.044.264.044.39 0 0 1.63.09 3.26.16 4.88 0 .11.7 0 .69-.18-.193-3.953-.253-7.887-.18-11.8zM21.41 7.4l.1-1.92c0-.65 0-1.3.13-1.94.108-.778.458-1.502 1-2.07v6c-.4-.111-.82-.135-1.23-.07zM12.36.5c-4 0-6.47 2.54-6.47 6.79.037 1.817.945 3.506 2.44 4.54 1.508 1.088 3.32 1.672 5.18 1.67 3.64 0 5.9-2.38 5.9-6.21C19.41 3.8 16 .5 12.36.5zm1.15 12.41c-4.34 0-7-2.92-7-5.62 0-3.88 2.2-6.2 5.88-6.2 3.32 0 6.46 3 6.46 6.2-.03 3.52-2.02 5.62-5.34 5.62z" transform="translate(0 5)"/>
                <path fill="#0038A5" fill-rule="nonzero" d="M8.56 6.37v.91c-.005 1.61 1.082 3.018 2.64 3.42V3c-1.538.4-2.62 1.78-2.64 3.37z" transform="translate(0 5)"/>
                <path fill="#FFF" fill-rule="nonzero" d="M13 2.83h-.91c-.303.015-.603.072-.89.17v7.7l.34.08h2l.34-.08V3c-.284-.096-.58-.153-.88-.17z" transform="translate(0 5)"/>
                <path fill="#F24249" fill-rule="nonzero" d="M13.89 3v7.7c1.552-.41 2.633-1.815 2.63-3.42v-.91C16.5 4.783 15.425 3.404 13.89 3z" transform="translate(0 5)"/>
            </g>
        </g>
    </g>
</svg>
