<svg xmlns="http://www.w3.org/2000/svg" width="24" height="24" viewBox="0 0 24 24">
    <g fill="none" fill-rule="evenodd">
        <g>
            <g>
                <path d="M13.84 1.82L13.84 1.82 13.9 1.82zM6.13 1.88l-.08.06.17-.1c-.032.007-.063.02-.09.04zM16.68 4.63v.06s.01-.05 0-.06zM16.74 12.37c.02-.038.038-.078.05-.12-.047.071-.09.145-.13.22.032-.029.059-.062.08-.1zM6.23 15.28c.062.017.128.017.19 0l-.35-.19c.037.075.092.14.16.19zM3.32 4.73c-.006.043-.006.087 0 .13 0-.08.09-.16.14-.24-.053.028-.1.066-.14.11zM3.38 12.47c.036.056.084.104.14.14l-.2-.33c.008.067.028.131.06.19zM13.94 15.22c.045-.031.085-.068.12-.11l-.28.16c.056-.005.111-.022.16-.05zM2.36 8.43c-.014.06-.014.12 0 .18-.013.063-.013.127 0 .19v-.27-.1zM10.05 16.25H9.9c.06.03.124.046.19.05.07-.003.137-.02.2-.05h-.24zM17.74 8.59v-.1c.004-.037.004-.073 0-.11v.21z" transform="translate(2 1)"/>
                <path fill="#FFF" fill-rule="nonzero" d="M10.29 16.24c.22-.113.425-.255.61-.42.195-.173.406-.327.63-.46.107-.061.221-.108.34-.14.38-.08.77-.08 1.15 0 .252.038.508.038.76 0l.28-.16c.149-.21.263-.444.34-.69.118-.365.304-.705.55-1 .208-.193.453-.343.72-.44l.27-.11c.26-.085.503-.214.72-.38.04-.075.083-.149.13-.22.021-.261.004-.524-.05-.78-.08-.39-.08-.79 0-1.18.124-.374.328-.715.6-1 .18-.205.326-.438.43-.69v-.04-.15c-.102-.261-.255-.499-.45-.7-.265-.288-.466-.629-.59-1-.085-.382-.085-.778 0-1.16.065-.29.065-.59 0-.88v-.06c-.219-.21-.487-.361-.78-.44-.368-.111-.709-.299-1-.55-.257-.289-.448-.63-.56-1-.089-.29-.243-.558-.45-.78h-.06c-.285-.075-.585-.075-.87 0-.386.08-.784.08-1.17 0-.37-.126-.71-.327-1-.59-.243-.2-.531-.338-.84-.4h-.16c-.266.103-.507.26-.71.46-.287.27-.628.474-1 .6-.38.074-.77.074-1.15 0-.274-.054-.556-.054-.83 0l-.17.1c-.174.22-.303.47-.38.74-.114.367-.3.707-.55 1-.29.256-.63.447-1 .56-.256.082-.496.207-.71.37 0 .08-.1.16-.14.24-.043.255-.043.515 0 .77.08.39.08.79 0 1.18-.133.37-.337.71-.6 1-.16.185-.294.39-.4.61v.37c.113.226.258.435.43.62.265.288.466.629.59 1 .08.383.08.777 0 1.16-.033.242-.033.488 0 .73l.2.33c.204.136.427.244.66.32l.2.07c.298.106.574.27.81.48.252.292.443.632.56 1 .083.234.19.459.32.67l.35.19c.238.012.477-.008.71-.06.24-.046.485-.073.73-.08.149 0 .297.02.44.06.087.02.17.05.25.09.274.132.53.3.76.5.178.159.376.294.59.4h.39l.1-.06zM9.35 14c-2.855-.359-4.94-2.876-4.76-5.748.18-2.872 2.562-5.11 5.44-5.11 2.878 0 5.26 2.238 5.44 5.11.18 2.872-1.905 5.389-4.76 5.748-.236.017-.474.017-.71 0-.216.014-.434.014-.65 0zM12 1.07L11.93 1.07 11.93 1.07z" transform="translate(2 1)"/>
                <path fill="#FFF" fill-rule="nonzero" d="M14.24 10.52c.854-1.847.403-4.035-1.113-5.392-1.515-1.358-3.74-1.567-5.482-.516-1.742 1.052-2.593 3.117-2.098 5.09.495 1.974 2.22 3.393 4.253 3.498h.46c1.72-.09 3.25-1.12 3.98-2.68zM12.8 8l-1.27 1.33.35 1.84c.006.046-.014.091-.052.117-.039.025-.088.027-.128.003l-1.7-.96-1.63.91c-.038.028-.09.028-.128 0-.038-.026-.055-.075-.042-.12l.4-1.83L7.27 8c-.03-.033-.04-.08-.025-.121.015-.042.051-.072.095-.079l1.81-.25.74-1.64c.021-.038.061-.062.105-.062s.084.024.105.062l.82 1.64 1.81.22c.041-.013.086-.002.117.027.031.03.045.073.035.115-.01.042-.04.075-.082.088z" transform="translate(2 1)"/>
                <path fill="#1B2C2F" fill-rule="nonzero" d="M7.25 16.07c-.467.142-.97.118-1.42-.07-.413-.3-.707-.735-.83-1.23-.083-.258-.211-.498-.38-.71-.184-.153-.394-.271-.62-.35L.53 19.58l2.82-.09L4.66 22l3.48-5.95h-.05c-.28-.041-.563-.035-.84.02zM16.08 13.67c-.2.066-.386.168-.55.3-.174.218-.3.47-.37.74-.128.482-.413.908-.81 1.21-.46.192-.972.22-1.45.08-.268-.049-.542-.049-.81 0l-.15.06L15.41 22l1.3-2.51 2.82.09-3.45-5.91z" transform="translate(2 1)"/>
                <path fill="#59AA51" fill-rule="nonzero" d="M12.9 16c.482.13.994.092 1.45-.11.397-.302.682-.728.81-1.21.07-.27.196-.522.37-.74.164-.132.35-.234.55-.3l.16-.07c.485-.133.911-.425 1.21-.83.19-.453.221-.957.09-1.43-.064-.279-.08-.566-.05-.85.107-.261.26-.502.45-.71.344-.35.562-.803.62-1.29-.058-.502-.288-.968-.65-1.32-.186-.199-.335-.429-.44-.68-.054-.27-.054-.55 0-.82.126-.483.084-.994-.12-1.45-.3-.4-.726-.685-1.21-.81-.257-.075-.498-.197-.71-.36-.163-.21-.288-.447-.37-.7-.125-.491-.419-.923-.83-1.22-.449-.19-.949-.226-1.42-.1-.268.048-.542.048-.81 0-.244-.108-.47-.253-.67-.43C10.964.234 10.495.033 10 0c-.5.062-.966.29-1.32.65-.2.188-.43.34-.68.45-.271.048-.549.048-.82 0-.48-.12-.987-.079-1.44.12-.4.3-.686.726-.81 1.21-.078.264-.203.511-.37.73-.212.169-.452.297-.71.38-.489.125-.917.42-1.21.83-.194.452-.226.957-.09 1.43.053.28.053.57 0 .85-.105.26-.254.5-.44.71-.351.344-.57.8-.62 1.29.058.502.288.968.65 1.32.19.195.34.426.44.68.049.271.049.549 0 .82-.13.482-.09.993.11 1.45.302.397.728.682 1.21.81h.07c.24.074.464.193.66.35.169.212.297.452.38.71.124.486.414.914.82 1.21.45.191.952.22 1.42.08.278-.048.562-.048.84 0h.05c.244.108.47.253.67.43.344.346.795.565 1.28.62.5-.06.964-.293 1.31-.66.166-.14.343-.268.53-.38l.15-.06c.27-.06.547-.07.82-.03zm-2.81.26c-.066-.004-.13-.02-.19-.05-.214-.106-.412-.241-.59-.4-.23-.2-.486-.368-.76-.5-.08-.04-.163-.07-.25-.09-.143-.04-.291-.06-.44-.06-.245.007-.49.034-.73.08-.233.052-.472.072-.71.06-.062.017-.128.017-.19 0-.062-.035-.117-.083-.16-.14-.13-.211-.237-.436-.32-.67-.117-.368-.308-.708-.56-1-.236-.214-.51-.38-.81-.49l-.2-.07c-.233-.076-.456-.184-.66-.32-.056-.036-.104-.084-.14-.14-.032-.059-.052-.123-.06-.19-.033-.242-.033-.488 0-.73.08-.383.08-.777 0-1.16-.124-.371-.325-.712-.59-1-.172-.185-.317-.394-.43-.62-.013-.063-.013-.127 0-.19-.014-.06-.014-.12 0-.18.106-.22.24-.425.4-.61.263-.29.467-.63.6-1 .08-.39.08-.79 0-1.18-.043-.255-.043-.515 0-.77-.006-.043-.006-.087 0-.13.028-.041.062-.078.1-.11.214-.163.454-.288.71-.37.37-.113.71-.304 1-.56.25-.293.436-.633.55-1 .077-.27.206-.52.38-.74l.08-.06c.03-.005.06-.005.09 0 .274-.054.556-.054.83 0 .38.074.77.074 1.15 0 .372-.126.713-.33 1-.6.203-.2.444-.357.71-.46h.1c.27.091.516.241.72.44.29.263.63.464 1 .59.386.08.784.08 1.17 0 .285-.075.585-.075.87 0 .207.222.361.49.45.78.112.37.303.711.56 1 .291.251.632.439 1 .55.293.079.561.23.78.44.065.29.065.59 0 .88-.085.382-.085.778 0 1.16.124.371.325.712.59 1 .195.201.348.439.45.7.004.037.004.073 0 .11v.1c-.104.252-.25.485-.43.69-.272.285-.476.626-.6 1-.08.39-.08.79 0 1.18.054.256.071.519.05.78-.012.042-.03.082-.05.12-.021.038-.048.071-.08.1-.217.166-.46.295-.72.38l-.27.11c-.267.097-.512.247-.72.44-.246.295-.432.635-.55 1-.077.246-.191.48-.34.69-.035.042-.075.079-.12.11-.049.028-.104.045-.16.05-.252.038-.508.038-.76 0-.38-.08-.77-.08-1.15 0-.119.032-.233.079-.34.14-.224.133-.435.287-.63.46-.185.165-.39.307-.61.42-.005.02-.012.04-.02.06v-.03z" transform="translate(2 1)"/>
                <path fill="#59AA51" fill-rule="nonzero" d="M14.72 11.34c1.19-1.98 1.005-4.494-.462-6.279-1.466-1.784-3.897-2.453-6.07-1.67-2.172.783-3.617 2.85-3.608 5.159-.008 2.758 2.035 5.093 4.77 5.45.216.014.434.014.65 0 .226.015.454.015.68 0 1.688-.208 3.182-1.192 4.04-2.66zM10 13.2h-.2c-2.515-.125-4.471-2.232-4.409-4.75.063-2.516 2.121-4.524 4.639-4.524 2.518 0 4.576 2.008 4.639 4.525.062 2.517-1.894 4.624-4.409 4.749H10z" transform="translate(2 1)"/>
                <path fill="#1B2C2F" fill-rule="nonzero" d="M12.73 7.76l-1.81-.22-.82-1.64c-.021-.038-.061-.062-.105-.062s-.084.024-.105.062l-.74 1.64-1.81.25c-.044.007-.08.037-.095.079s-.005.088.025.121l1.36 1.3-.4 1.83c-.013.045.004.094.042.12.039.028.09.028.128 0l1.6-.91 1.67.92c.04.024.09.022.128-.003.038-.026.058-.071.052-.117l-.35-1.84L12.8 8c.066-.02.104-.089.085-.155-.02-.066-.089-.104-.155-.085z" transform="translate(2 1)"/>
            </g>
        </g>
    </g>
</svg>
