<svg xmlns="http://www.w3.org/2000/svg" width="120" height="120" viewBox="0 0 120 120">
    <g fill="none" fill-rule="evenodd">
        <g fill-rule="nonzero">
            <g>
                <path fill="#59AA51" d="M14.36 61.19h-.62l-1.68.12c-.59.05-1.17.12-1.75.21l-.84.13h-.29c1.204 1.93 2.612 3.723 4.2 5.35 2.223 2.198 4.58 4.256 7.06 6.16.442-.267.953-.4 1.47-.38l5 .3c-2.122-1.69-4.151-3.493-6.08-5.4-1.586-1.608-3.003-3.374-4.23-5.27-.27-.42-.53-.86-.79-1.3-.15.01-.3.01-.45 0l-1 .08zM9.59 45.73c-1.843.336-3.723.427-5.59.27.42 4.976 1.892 9.806 4.32 14.17h.1c2.13-.416 4.29-.663 6.46-.74-2.228-4.452-3.505-9.318-3.75-14.29-.119.108-.25.202-.39.28-.363.168-.752.273-1.15.31zM22.73 74.89c3.514 2.51 7.294 4.625 11.27 6.31 1.58-.14 3.12-.34 4.63-.6-3.466-1.689-6.767-3.697-9.86-6-.462.405-1.067.61-1.68.57l-4.36-.28zM37.73 82.57c2.365.796 4.799 1.372 7.27 1.72 2 .26 2 .18 4.31.41.72.08 1.44.14 2.16.2-3.597-.687-7.108-1.767-10.47-3.22-1.27.27-2.55.5-3.83.69l.56.2zM12.27 19.4c-2.195 2.774-4.01 5.827-5.4 9.08.168-.03.339-.047.51-.05 2.26 0 4.51-.05 6.76-.14 2.21-5.02 5.364-9.57 9.29-13.4-2.75.877-5.606 1.382-8.49 1.5-.94.958-1.83 1.963-2.67 3.01zM3.81 43.38v1h.22c.99.179 1.994.269 3 .27H8.75l.38-.05.83-.13c.333-.059.676-.038 1 .06-.115-3.14.174-6.283.86-9.35.41-1.79.949-3.547 1.61-5.26-2.42.1-4.84.17-7.26.16-1.62 4.244-2.422 8.757-2.36 13.3zM26.49 8c-3.815 1.905-7.326 4.365-10.42 7.3 2.882-.059 5.73-.631 8.41-1.69l.48-.15c.66-.59 1.33-1.17 2-1.72 1.947-1.544 4.017-2.925 6.19-4.13-2.2.358-4.432.49-6.66.39zM35.24 6.35l.65-.13c2.577-1.24 5.253-2.264 8-3.06-5.18.418-10.256 1.677-15.03 3.73 2.141.107 4.287-.075 6.38-.54z" transform="translate(7 2)"/>
                <path fill="#000" d="M16.07 15.3h-.44c-.723 0-1.433.19-2.06.55-.45.28-.43.59.15.59.41 0 .81-.05 1.22-.07 2.884-.118 5.74-.623 8.49-1.5.5-.49 1-1 1.53-1.43l-.48.15c-2.68 1.066-5.527 1.645-8.41 1.71zM26.49 8c2.234.1 4.473-.03 6.68-.39.89-.5 1.8-.95 2.72-1.39l-.65.13c-2.093.465-4.239.647-6.38.54-.93 0-1.86-.12-2.77-.25-.153-.01-.307-.01-.46 0-.545.018-1.081.14-1.58.36-.18.08-.85.49-.54.65.053.027.11.044.17.05.93.17 1.87.3 2.81.3zM6.87 28.48c-.548.05-1.056.307-1.42.72-.4.56.34.76.76.76 2.42 0 4.84-.06 7.26-.16.2-.51.4-1 .62-1.51-2.25.09-4.5.15-6.76.14-.154.005-.308.022-.46.05zM10.06 44.35l-.83.13-.38.05H7.13c-1.006-.001-2.01-.091-3-.27h-.27c-.677-.017-1.337.21-1.86.64-.16.13-.38.32-.32.55.06.23.36.28.55.31.56.1 1.14.17 1.71.22 1.88.167 3.773.083 5.63-.25.387-.058.763-.18 1.11-.36.14-.078.271-.172.39-.28v-.68c-.327-.1-.673-.12-1.01-.06zM8.28 60.15c-.51.14-1.3.61-1.14 1.2.16.59 1.21.53 1.68.43H9.47l.84-.13c.58-.09 1.16-.16 1.75-.21l1.68-.12H15.35c.15.01.3.01.45 0-.34-.58-.673-1.17-1-1.77-2.17.077-4.33.324-6.46.74l-.06-.14zM20.44 73.2c-.188.116-.34.282-.44.48-.29.63.25 1.06.85 1.1l1.88.11 4.39.26c.613.04 1.218-.165 1.68-.57-.64-.47-1.28-1-1.9-1.46l-5-.3c-.513-.017-1.02.115-1.46.38zM33.54 81.25c-.53 0-1.53.37-1.66 1-.13.63.9.63 1.25.6 1.36-.1 2.71-.26 4-.46s2.61-.39 3.87-.71c-.79-.34-1.58-.7-2.35-1.08-1.51.26-3 .46-4.63.6l-.48.05z" transform="translate(7 2)"/>
                <path fill="#FFF" d="M77.65 7C69 2.24 57.89 1.67 48.36 3.51c-9.513 1.796-18.14 6.754-24.48 14.07-5.997 6.847-9.37 15.6-9.52 24.7-.07 9.022 3.39 17.714 9.64 24.22 7 6.91 15.27 12.64 24.7 15.64 2.376.779 4.82 1.331 7.3 1.65 1.88.22 3.1.31 5.61.53 10.12.87 20.91 0 29.29-6.28 7.7-5.81 10.71-15.15 11.23-24.49.52-9.34-2-18.63-6.18-26.89C91.77 18.4 85.83 11.37 77.65 7zm6.19 56.89c-8.7 2.71-18.27 3-27.29 2.08-6.78-.71-14.34-3.1-18.12-9.26-1.81-3.06-2.487-6.66-1.91-10.17l-10.15.77c-.81.07-2.51 0-2.36-1.21.15-1.21 2.13-1.81 3.08-1.88l10.08-.77c.2-.7.42-1.4.67-2.09l-12.47.95c-.82.06-2.51 0-2.36-1.22.15-1.22 2.13-1.81 3.08-1.88l13.11-1c.32-.64.65-1.28 1-1.9 3.39-6 8.57-11.12 15-13.71 7.04-3.035 15.062-2.809 21.92.62 1.6.84.63 2.8-.41 3.58-1.472 1.098-3.438 1.272-5.08.45-5.413-2.65-11.832-2.188-16.81 1.21-3.408 2.418-6.238 5.56-8.29 9.2l17.06-1.3c.82-.06 2.52 0 2.36 1.22-.16 1.22-2.12 1.8-3.07 1.87L45 40.76c-.28.7-.53 1.4-.74 2.1l20.34-1.54c.82-.07 2.52 0 2.36 1.22-.16 1.22-2.12 1.8-3.07 1.87L43.6 46c-.614 3.868.749 7.787 3.63 10.44 4.41 4 10.72 4.57 16.41 4.79 6.381.399 12.784-.298 18.93-2.06 1.29-.4 3.78-.25 4.19 1.41.41 1.66-1.56 2.84-2.92 3.26v.05z" transform="translate(7 2)"/>
                <path fill="#1B2C2F" d="M101.65 31.15c-1.788-4.513-4.08-8.81-6.83-12.81C91.986 14.3 88.454 10.8 84.39 8 76 2 65.19.33 55.05 1.15c-1.14.09-2.27.23-3.4.39-3.142-.114-6.287.01-9.41.37-5.754.664-11.364 2.254-16.61 4.71.153-.01.307-.01.46 0 .91.13 1.84.21 2.77.25 4.788-2.05 9.878-3.303 15.07-3.71-2.747.796-5.423 1.82-8 3.06-.92.44-1.83.89-2.72 1.39-2.18 1.204-4.257 2.585-6.21 4.13-.69.55-1.36 1.13-2 1.72-.64.59-1 .94-1.53 1.43-3.926 3.83-7.08 8.38-9.29 13.4-.22.5-.42 1-.62 1.51-.661 1.713-1.2 3.47-1.61 5.26-.686 3.067-.975 6.21-.86 9.35v.68c.245 4.972 1.522 9.838 3.75 14.29.3.6.633 1.19 1 1.77.26.44.52.88.79 1.3 1.227 1.896 2.644 3.662 4.23 5.27 1.929 1.907 3.958 3.71 6.08 5.4.62.5 1.26 1 1.9 1.46 3.093 2.303 6.394 4.311 9.86 6 .77.38 1.56.74 2.35 1.08 3.351 1.458 6.852 2.544 10.44 3.24-.72-.06-1.44-.12-2.16-.2-2.28-.23-2.3-.15-4.31-.41-2.478-.347-4.918-.922-7.29-1.72l-.55-.2c-1.34.2-2.69.36-4 .46-.35 0-1.4 0-1.25-.6.15-.6 1.13-.94 1.66-1h.49c-3.987-1.683-7.776-3.799-11.3-6.31l-1.88-.11c-.6 0-1.14-.47-.85-1.1.1-.198.252-.364.44-.48-2.499-1.925-4.873-4.006-7.11-6.23-1.587-1.618-2.995-3.401-4.2-5.32h-.36c-.47.1-1.5.23-1.68-.43-.18-.66.63-1.06 1.14-1.2C5.882 55.72 4.424 50.932 4 46c-.57 0-1.15-.12-1.71-.22-.19 0-.49-.09-.55-.31-.06-.22.12-.47.26-.57.529-.397 1.18-.595 1.84-.56v-1c-.048-4.56.774-9.087 2.42-13.34-.42 0-1.16-.2-.76-.76.364-.413.872-.67 1.42-.72 1.902-4.504 4.64-8.606 8.07-12.09-.41 0-.81.06-1.22.07-.58 0-.6-.31-.15-.59.627-.36 1.337-.55 2.06-.55h.44c3.074-2.952 6.569-5.432 10.37-7.36-.94-.05-1.88-.13-2.81-.27-.06-.006-.117-.023-.17-.05-2.991 1.57-5.798 3.469-8.37 5.66-7.085 5.934-12.007 14.046-14 23.07C-.722 45.568 1.018 55.092 6 63c1.229 1.895 2.646 3.66 4.23 5.27 9.6 9.49 21.63 16.59 35.23 17.81 6.59.6 13.21.94 19.68 0 7.59.15 15-.65 22.17-4 4.16-1.907 7.865-4.679 10.87-8.13 3.008-3.746 5.082-8.154 6.05-12.86 2.39-10.09 1.13-20.35-2.58-29.94zm.44 22.4c-.52 9.34-3.53 18.68-11.23 24.49-8.38 6.32-19.17 7.15-29.29 6.28-2.51-.22-3.73-.31-5.61-.53-2.483-.318-4.93-.87-7.31-1.65-9.43-3-17.71-8.73-24.7-15.64-6.232-6.514-9.674-15.205-9.59-24.22.15-9.1 3.523-17.853 9.52-24.7 6.34-7.316 14.967-12.274 24.48-14.07C57.89 1.67 69 2.24 77.65 7c8.18 4.42 14.09 11.53 18.26 19.71 4.17 8.18 6.68 17.53 6.18 26.84z" transform="translate(7 2)"/>
                <path fill="#59AA51" d="M82.57 59.12c-6.146 1.762-12.549 2.459-18.93 2.06-5.69-.22-12-.75-16.41-4.79-2.865-2.643-4.226-6.538-3.63-10.39l20.27-1.54c.95-.07 2.93-.72 3.07-1.87.14-1.15-1.54-1.29-2.36-1.22l-20.34 1.49c.21-.7.46-1.4.74-2.1l17.89-1.36c.95-.07 2.93-.72 3.07-1.87.14-1.15-1.54-1.28-2.36-1.22l-17.06 1.3c2.052-3.64 4.882-6.782 8.29-9.2 4.978-3.398 11.397-3.86 16.81-1.21 1.642.822 3.608.648 5.08-.45 1-.78 2-2.74.41-3.58-6.858-3.429-14.88-3.655-21.92-.62-6.42 2.59-11.6 7.75-15 13.71-.35.62-.68 1.26-1 1.9l-13.11 1c-1 .07-2.93.72-3.08 1.88-.15 1.16 1.54 1.28 2.36 1.22l12.47-.95c-.25.69-.47 1.39-.67 2.09l-10.08.77c-1 .07-2.93.72-3.08 1.88-.15 1.16 1.55 1.28 2.36 1.21l10.15-.77c-.577 3.51.1 7.11 1.91 10.17 3.78 6.16 11.34 8.55 18.12 9.26 9 .94 18.59.63 27.29-2.08 1.36-.42 3.34-1.58 2.92-3.31-.42-1.73-2.89-1.81-4.18-1.41zM63.87 109.64c-15.78-.25-45.94 2.72-45.94 4.06 0 4.24 79.05 4.72 79.08-.8-.01-4.24-17.36-3-33.14-3.26z" transform="translate(7 2)"/>
            </g>
        </g>
    </g>
</svg>
