<svg xmlns="http://www.w3.org/2000/svg" width="24" height="24" viewBox="0 0 24 24">
    <g fill="none" fill-rule="evenodd">
        <g>
            <g>
                <path d="M21.631 13.388c.256-.367.424-.789.49-1.231-.07-.456-.253-.886-.531-1.253-.247-.376-.443-.783-.585-1.21-.106-.44-.152-.893-.135-1.346.044-.457-.02-.919-.188-1.346-.279-.35-.636-.63-1.044-.814-.407-.209-.785-.468-1.127-.772-.305-.337-.564-.713-.772-1.117-.194-.41-.484-.768-.845-1.043-.416-.157-.863-.21-1.304-.157-.469.021-.938-.014-1.399-.104-.445-.143-.869-.343-1.262-.595-.366-.271-.792-.45-1.242-.522-.455.07-.886.253-1.252.532-.378.245-.784.441-1.21.585-.437.108-.887.154-1.336.135h-.136c-.423-.04-.85.025-1.242.188-.35.278-.63.636-.814 1.044-.2.414-.46.797-.772 1.137-.334.3-.706.557-1.106.762-.41.194-.768.484-1.043.845-.157.416-.21.863-.157 1.304.023.469-.012.939-.104 1.399-.138.446-.339.871-.595 1.262-.257.363-.425.781-.49 1.221.056.46.229.898.5 1.273.25.375.446.783.585 1.21.103.449.146.908.125 1.368-.044.453.02.911.188 1.335.28.35.637.628 1.043.814.414.202.797.462 1.138.772.308.33.568.703.772 1.106.194.41.484.768.845 1.044.416.155.863.209 1.304.156h.418c.35-.008.701.027 1.043.105.446.14.87.34 1.263.595.363.257.78.425 1.22.49.46-.068.894-.25 1.263-.532.377-.246.784-.443 1.21-.585.495-.102 1-.145 1.503-.125.41.04.823-.025 1.2-.188.35-.278.63-.636.814-1.043.204-.41.464-.789.773-1.127.33-.308.702-.568 1.106-.772.41-.195.768-.485 1.043-.845.155-.416.21-.864.157-1.305-.023-.468.012-.938.104-1.398.14-.44.337-.862.584-1.252zm-9.788 3.548c-.16.366-.355.715-.584 1.043l-.094.136c-.867-.919-1.572-1.977-2.087-3.13-.66-1.52-.912-3.185-.73-4.832 0-.198-.146-.24-.292-.156-.175.14-.28.35-.293.573-.224 2.313.35 4.633 1.628 6.574l-.26-.156c-1.197-.626-2.192-1.577-2.87-2.745-.318-.95-.424-1.957-.313-2.953.065-1.1.204-2.195.417-3.276.063-.344.136-.689.209-1.044 1.44.973 2.739 2.138 3.86 3.465.94.978 1.592 2.194 1.89 3.516.141 1.02-.026 2.06-.48 2.985zm5.218-1.889c-.243.907-.73 1.73-1.409 2.38-.545.467-1.217.761-1.93.844-.268.021-.536.021-.804 0h-.104c.206-.85.559-1.66 1.043-2.39.64-.927 1.51-1.671 2.526-2.16.114-.062.083-.166 0-.218-.14-.063-.3-.063-.439 0-1.426.713-2.567 1.89-3.234 3.339v-.146c-.064-.912.132-1.824.563-2.63.438-.532.986-.963 1.607-1.263.673-.363 1.37-.68 2.087-.95.22-.093.449-.176.668-.25-.04 1.171-.244 2.33-.605 3.444h.03z"/>
                <path fill="#59AA51" fill-rule="nonzero" d="M22.529 10.34c-.197-.294-.354-.614-.47-.949-.071-.343-.1-.693-.083-1.043.057-.648-.059-1.3-.334-1.889-.375-.542-.891-.971-1.492-1.242-.324-.153-.622-.354-.887-.594-.238-.26-.438-.552-.595-.866-.275-.6-.708-1.111-1.252-1.482-.583-.273-1.23-.378-1.868-.303-.37.02-.742-.004-1.106-.073-.348-.117-.68-.275-.992-.47-.52-.374-1.134-.598-1.773-.646-.661.056-1.293.294-1.827.688-.292.196-.607.354-.939.47-.343.071-.693.1-1.043.083-.648-.061-1.301.054-1.889.334-.542.375-.971.891-1.242 1.492-.144.322-.333.62-.563.887-.26.237-.552.437-.866.595-.598.277-1.11.71-1.482 1.252-.264.589-.369 1.237-.303 1.879.017.35-.007.7-.073 1.043-.11.368-.272.72-.48 1.044-.365.524-.585 1.136-.636 1.773.063.663.308 1.295.71 1.827.19.29.348.602.469.928.07.343.099.694.084 1.044-.061.649.058 1.302.344 1.888.374.534.886.956 1.482 1.221.323.154.622.354.887.595.24.258.44.55.594.866.275.599.708 1.111 1.253 1.482.588.266 1.236.37 1.878.303.35-.016.7.008 1.043.073.366.113.716.27 1.044.47.518.372 1.127.595 1.763.646.66-.061 1.29-.299 1.826-.689.291-.197.607-.355.94-.47.342-.07.693-.098 1.043-.083.65.061 1.303-.058 1.889-.344.52-.373.935-.877 1.2-1.46.154-.318.35-.613.584-.877.26-.237.552-.437.866-.595.596-.279 1.108-.71 1.482-1.252.264-.589.369-1.237.302-1.879-.015-.35.01-.7.073-1.043.114-.366.271-.716.47-1.044.369-.523.592-1.135.647-1.773-.052-.657-.287-1.286-.678-1.816zm-1.753 7.013c-.276.36-.634.65-1.044.845-.403.204-.775.464-1.106.772-.308.338-.568.718-.772 1.127-.185.408-.464.765-.814 1.044-.378.163-.79.227-1.2.188-.504-.02-1.009.022-1.503.125-.427.142-.833.338-1.21.584-.37.282-.804.465-1.263.532-.44-.065-.858-.233-1.22-.49-.391-.242-.812-.432-1.253-.563-.342-.078-.692-.113-1.043-.105H7.95c-.44.053-.888 0-1.304-.156-.36-.276-.65-.634-.845-1.044-.204-.403-.464-.775-.772-1.106-.341-.31-.724-.57-1.138-.772-.406-.186-.764-.465-1.043-.814-.168-.424-.232-.882-.188-1.336.02-.459-.022-.919-.125-1.367-.142-.443-.346-.865-.606-1.252-.28-.369-.464-.803-.532-1.262.065-.44.234-.859.49-1.221.257-.391.457-.816.595-1.263.093-.46.128-.93.105-1.398-.054-.441 0-.889.156-1.304.276-.361.634-.651 1.044-.846.4-.208.772-.468 1.106-.772.311-.34.571-.723.772-1.137.184-.408.463-.766.814-1.044.402-.168.84-.233 1.273-.188h.136c.445.021.891-.021 1.325-.125.43-.146.84-.346 1.22-.595.367-.28.798-.462 1.253-.532.44.065.858.234 1.22.49.394.253.819.453 1.263.595.46.091.93.126 1.399.105.44-.054.888 0 1.304.156.36.276.65.634.845 1.044.209.4.468.772.772 1.106.342.304.72.563 1.127.772.408.185.765.464 1.044.814.182.439.254.915.209 1.388-.02.456.021.912.125 1.356.142.427.338.834.584 1.21.279.367.462.798.532 1.253-.066.443-.234.864-.49 1.231-.245.378-.441.784-.584 1.21-.093.46-.128.93-.105 1.399.06.455.006.917-.156 1.346z"/>
                <path fill="#59AA51" fill-rule="nonzero" d="M10.435 10.435C9.309 9.11 8.006 7.949 6.563 6.98c-.073.344-.146.689-.208 1.043-.213 1.082-.352 2.177-.418 3.277-.106.993.004 1.997.324 2.942.664 1.16 1.64 2.111 2.817 2.745l.261.156c-1.274-1.942-1.844-4.262-1.617-6.574.012-.224.118-.432.292-.573.146-.084.313 0 .292.156-.176 1.629.072 3.275.72 4.78.515 1.153 1.22 2.211 2.087 3.13l.094-.136c.229-.328.424-.677.584-1.044.455-.943.611-2.002.449-3.036-.29-1.277-.913-2.454-1.805-3.412zM14.88 12.783c-.621.299-1.17.73-1.607 1.262-.435.812-.63 1.732-.563 2.65v.22c.667-1.448 1.808-2.626 3.234-3.34.14-.062.3-.062.439 0 .104 0 .135.157 0 .22-1.016.488-1.886 1.233-2.526 2.16-.484.73-.837 1.538-1.043 2.39h.104c.268.02.536.02.804 0 .721-.104 1.395-.424 1.93-.919.66-.655 1.128-1.478 1.357-2.379.353-1.122.546-2.288.574-3.464-.22.073-.45.156-.668.25-.699.27-1.379.588-2.035.95z"/>
            </g>
        </g>
    </g>
</svg>
