<svg xmlns="http://www.w3.org/2000/svg" xmlns:xlink="http://www.w3.org/1999/xlink" width="24" height="24" viewBox="0 0 24 24">
    <defs>
        <path id="37qgwx2e2a" d="M14.545 0C15.348 0 16 .64 16 1.429v17.857c0 .394-.326.714-.727.714h-.728c-.228 0-.444-.106-.581-.286l-1.6-2.095-1.6 2.095c-.143.171-.357.27-.582.27-.226 0-.439-.099-.582-.27L8 17.62l-1.6 2.095c-.143.171-.356.27-.582.27-.225 0-.439-.099-.582-.27l-1.6-2.095-1.6 2.095c-.137.18-.353.286-.581.286H.727C.326 20 0 19.68 0 19.286V1.429C0 .639.652 0 1.455 0zm0 1.429H1.455v16.666L3.055 16c.143-.171.356-.27.581-.27.226 0 .44.099.582.27l1.6 2.095L7.418 16c.143-.171.357-.27.582-.27.225 0 .439.099.582.27l1.6 2.095 1.6-2.095c.143-.171.356-.27.582-.27.225 0 .438.099.581.27l1.6 2.095V1.429zM13.091 10v1.429h-1.455V10h1.455zm-4.364 0v1.429H2.91V10h5.818zm4.364-2.857V8.57h-1.455V7.143h1.455zm-4.364 0V8.57H2.91V7.143h5.818zm4.364-2.857v1.428H2.909V4.286h10.182z"/>
    </defs>
    <g fill="none" fill-rule="evenodd">
        <g>
            <g transform="translate(4 2)">
                <mask id="nifxokvamb" fill="#fff">
                    <use xlink:href="#37qgwx2e2a"/>
                </mask>
                <use fill="#000" fill-rule="nonzero" xlink:href="#37qgwx2e2a"/>
                <g fill="#1A2C2E" mask="url(#nifxokvamb)">
                    <path d="M0 0H24V24H0z" transform="translate(-4 -2)"/>
                </g>
            </g>
        </g>
    </g>
</svg>
