<svg xmlns="http://www.w3.org/2000/svg" xmlns:xlink="http://www.w3.org/1999/xlink" width="24" height="24" viewBox="0 0 24 24">
    <defs>
        <path id="wthba7jpea" d="M13 7h-2v4H7v2h4v4h2v-4h4v-2h-4V7zm-1-5C6.48 2 2 6.48 2 12s4.48 10 10 10 10-4.48 10-10S17.52 2 12 2zm0 18c-4.41 0-8-3.59-8-8s3.59-8 8-8 8 3.59 8 8-3.59 8-8 8z"/>
    </defs>
    <g fill="none" fill-rule="evenodd">
        <g>
            <mask id="fsppvepjhb" fill="#fff">
                <use xlink:href="#wthba7jpea"/>
            </mask>
            <g fill="#1A2C2E" mask="url(#fsppvepjhb)">
                <path d="M0 0H24V24H0z"/>
            </g>
        </g>
    </g>
</svg>
