<svg xmlns="http://www.w3.org/2000/svg" width="24" height="24" viewBox="0 0 24 24">
    <g fill="none" fill-rule="evenodd">
        <g fill-rule="nonzero">
            <g>
                <path fill="#1B2C2F" d="M14.42 8.33c-.18.062-.37.1-.56.11-.12.035-.25.035-.37 0L12.76 8l-.35.76c-.076.097-.181.168-.3.2-.15.057-.304.104-.46.14-.17 0-.54.12-.68 0-.243-.282-.448-.595-.61-.93-.345.155-.703.278-1.07.37-.07 0-.75.16-.76 0-.467.507-.851 1.084-1.14 1.71-1 2.1.55 4.93 2.81 5.64s4.17-1 5.05-2.83c.652-1.564.386-3.36-.69-4.67l-.14-.06zM10.65 7L10.65 7 10.27 7.14 10.65 7.04z" transform="translate(1 1)"/>
                <path fill="#4A9F40" d="M10.88 3.66c.128.1.289.146.45.13.188-.014.367-.088.51-.21.131-.105.211-.262.22-.43C12 2.28 12 1.41 12 .54c-.002-.155-.07-.302-.185-.405-.117-.103-.27-.152-.425-.135-.29 0-.72.25-.73.64-.028.87-.012 1.741.05 2.61-.007.155.055.306.17.41zM17.25 5.2l2.2-.86c.139-.049.265-.127.37-.23.03-.028.048-.068.048-.11 0-.042-.017-.082-.048-.11-.21-.18-.65-.07-.87 0l-2.21.87c-.137.042-.26.117-.36.22-.06.07-.09.16 0 .23s.62.08.87-.01zM21.36 9.87l-2.84.31c-.195.023-.38.103-.53.23-.132.113-.22.269-.25.44 0 .163.073.317.199.42.126.103.292.143.451.11l2.84-.32c.192-.025.373-.105.52-.23.135-.11.224-.267.25-.44.004-.161-.067-.316-.192-.418-.125-.102-.29-.14-.448-.102zM17 15.21c-.115-.03-.235-.03-.35 0-.183.02-.361.068-.53.14-.145.053-.277.135-.39.24 0 0-.12.15 0 .19.836.393 1.582.955 2.19 1.65.06.07.28 0 .34 0 .183-.024.362-.075.53-.15.1 0 .58-.24.42-.42-.616-.695-1.368-1.257-2.21-1.65zM12 17.62c0-.11-.17-.15-.23-.16-.158-.024-.32-.006-.47.05-.16.06-.61.23-.56.53.18 1.26-.3 2.52 0 3.78.06.28.55.16.7.11.15-.05.62-.24.56-.53-.28-1.25.21-2.52 0-3.78zM6.82 16c-.364-.074-.741.043-1 .31-.822.94-1.568 1.942-2.23 3-.07.106-.07.244 0 .35.105.092.24.142.38.14.364.032.717-.136.92-.44.32-.5.66-1 1-1.46l.11-.16.13-.18c.1-.11.19-.23.28-.34l.59-.68c.101-.091.153-.225.14-.36-.067-.112-.189-.18-.32-.18zM4.66 11.3c.14-.08.246-.208.3-.36.09-.39-.49-.33-.63-.3-.56.12-1.12.22-1.69.31l-.81.13-.41.06h-.36c-.394.007-.763.195-1 .51-.21.34.18.47.38.45 1.22-.15 2.44-.34 3.65-.59.203-.029.397-.1.57-.21zM5.78 5.37l-1.69-.78c-.148-.034-.302-.034-.45 0-.186.021-.366.08-.53.17-.17.1-.43.34-.14.48L4.61 6c.447.14.845.404 1.15.76.06.09.28.1.36.1.188-.006.374-.043.55-.11.18-.08.55-.26.38-.5-.335-.404-.774-.709-1.27-.88zM9.29 8.45c.367-.092.725-.215 1.07-.37.172.334.387.643.64.92.14.16.51.07.68 0 .156-.036.31-.083.46-.14.119-.032.224-.103.3-.2l.32-.66.73.46c.12.035.25.035.37 0 .19-.01.38-.048.56-.11l.14-.06c.18-.07.45-.21.3-.31l-1-.63c-.167-.13-.344-.248-.53-.35H13.18c-.384-.107-.781-.16-1.18-.16.063-.043.117-.097.16-.16.15-.42.35-.82.6-1.19.06-.1-.08-.15-.12-.17h-.49c-.202.038-.398.105-.58.2-.123.06-.229.15-.31.26-.244.383-.446.792-.6 1.22l-.38.1c-.49.152-.963.356-1.41.61-.062.027-.115.072-.15.13l-.17.51c-.01.26.67.12.74.1z" transform="translate(1 1)"/>
            </g>
        </g>
    </g>
</svg>
