<svg xmlns="http://www.w3.org/2000/svg" viewBox="0 0 939.88 638.95"><defs><style>.cls-1{fill:#fff;}</style></defs><g id="Слой_2" data-name="Слой 2"><g id="Calque_1" data-name="Calque 1"><path class="cls-1" d="M119,280.44c0-13.48,7.09-19.39,23.41-19.39s23.41,5.91,23.41,19.39c0,13.24-7.09,19.15-23.41,19.15S119,293.69,119,280.44Zm43.51,151.1h-40.2V313.31h40.2Z"/><path class="cls-1" d="M282.34,384.72H195.8V351.86h86.54Z"/><path class="cls-1" d="M355.63,390.63c0,10.4,2.6,14.66,10.88,14.66a34,34,0,0,0,12.06-2.13L376,428c-5.67,3.55-15.84,5.91-24.59,5.91-25.3,0-35.94-11.11-35.94-37.36V263.18h40.2V390.63Z"/><path class="cls-1" d="M511,313.31V431.54H475l-1.18-22C466.29,426.1,452.11,433.9,433,433.9c-24.12,0-40.43-11.82-40.43-41.62v-79h40.2v68.81c0,16.08,5.91,21,16.32,21,12.53,0,21.76-8.28,21.76-27.19V313.3H511Z"/><path class="cls-1" d="M658.28,352.8v78.74h-40.2V363.91c0-16.79-6.86-22.23-16.79-22.23-11.59,0-21.28,7.8-21.28,27.43v62.43h-40.2V313.31h35.94l1.18,22.7c7.57-16.79,22-25.07,40.44-25.07C641.73,311,658.28,325.37,658.28,352.8Z"/><path class="cls-1" d="M482.72,535.89q-6.48,6.48-13.39,12.56T455,560.24q-3.48,2.68-7.06,5.28c-1.05.76-2.11,1.52-3.17,2.26l-.57.39c-.93.62-1.84,1.26-2.77,1.88a324.46,324.46,0,0,1-32.88,19.3c-1.39.71-2.77,1.41-4.17,2.1l-.81.4-1.23.59c-3.21,1.53-6.45,3-9.71,4.44q-9.13,4-18.49,7.55-4.62,1.76-9.28,3.39c-4.5,1.58-7.37,2.53-10.61,3.51q-13.1,4-26.55,6.79-3,.63-6,1.19l-1.07.18-3.16.52q-7.11,1.13-14.27,1.9a231.6,231.6,0,0,1-24.31,1.47c-61.52.55-123.61-19.66-169.71-58.07-42.29-35.24-69.76-83.51-76.93-136.1-4.42-32.38-4.73-65.67.21-98,4.73-31,15.15-60.33,29.62-88.46,13.42-26.09,29.59-51,49.27-73.42a276.78,276.78,0,0,1,65.43-54.61q4.8-2.85,9.75-5.45c1-.54,2-1.06,3.08-1.58l1.54-.75,1.44-.67c1-.48,2.08-1,3.13-1.41q5-2.19,10.12-4.12c1.7-.63,3.4-1.25,5.12-1.84l1.48-.5c-.29.11,2.26-.7,2.49-.77,3.44-1,6.92-2,10.42-2.79,1.74-.41,3.49-.81,5.25-1.17l2.63-.53.59-.12.79-.12c3.53-.55,7.06-1.07,10.62-1.46,1.78-.2,3.56-.36,5.34-.51l2.67-.2,2.26-.14c29.59-1.28,58.44,4.73,86,16.83a237.56,237.56,0,0,1,41.66,23.53c5.33,3.77,13.3,2.93,19.13.42,2.69-1.16,13.05-7.26,7.61-11.1-27.82-19.65-59.25-34.53-93.51-41.3a222.86,222.86,0,0,0-100.95,3.42c-64.14,17.41-117,62.78-153,114.15a384.31,384.31,0,0,0-44.51,83.16C5.71,311.61.37,345.4,0,379.22-.29,411,2,443.5,12.05,474A222.44,222.44,0,0,0,52.86,546.6c38.21,45.59,93.85,75,154.11,86.77a315.32,315.32,0,0,0,118.43-.07c33.31-6.25,65.38-18,95.42-32.69C469,577,471.14,571.25,508.34,536.17"/><path class="cls-1" d="M318.49,15.7a161.08,161.08,0,0,1,48.11,8c14.2,4.73,27.73,11.84,40.37,19.8,23.71,14.93,44.15,34.66,61.4,56.66,38.84,49.54,65.31,111,70.74,173.9.38,4.38.61,8.76.76,13.14h27.19a295.88,295.88,0,0,0-8.95-67.32c-8.54-33.67-22.88-65.56-40.72-95.3C486,72.21,439.71,26.1,380.16,7.8A187.91,187.91,0,0,0,328.87,0c-6-.12-14.36,2-17.78,7.45S314,15.61,318.49,15.7Z"/><path class="cls-1" d="M799.9,347.6l-37.36,12.3c-1.65-13.71-7.57-20.34-18.21-20.34-15.13,0-23.41,10.17-23.41,33.34,0,23.41,9.22,32.39,23.41,32.39,11.35,0,17.73-6.86,19.63-19.15l36.18,11.59c-3.31,20.57-22.46,36.18-55.57,36.18-41.38,0-63.84-22.7-63.84-61.48S703.67,311,742.92,311C781.22,311,796.12,328.45,799.9,347.6Z"/><path class="cls-1" d="M939.88,352.8v78.74h-40.2V363.91c0-16.79-6.86-22.46-16.79-22.46-11.59,0-21.28,8-21.28,27.9v62.19h-40.2V263.18h40.2v71.65C868.7,319,882,310.94,899,310.94,923.32,311,939.88,325.37,939.88,352.8Z"/><path class="cls-1" d="M355.49,503.81a2.26,2.26,0,0,1,.88.17,2.37,2.37,0,0,1,.85.61l4.91,5.53a20.68,20.68,0,0,1-8.08,6.8,26.72,26.72,0,0,1-11.5,2.3A25.81,25.81,0,0,1,331.64,517a23.82,23.82,0,0,1-8.18-6.12,27.48,27.48,0,0,1-5.15-9.25A36.26,36.26,0,0,1,316.52,490a32.49,32.49,0,0,1,2.05-11.74,27.45,27.45,0,0,1,5.74-9.23,25.63,25.63,0,0,1,8.82-6,28.92,28.92,0,0,1,11.33-2.16,27,27,0,0,1,5.66.57,26.24,26.24,0,0,1,5,1.57,22.21,22.21,0,0,1,4.25,2.39,20.49,20.49,0,0,1,3.45,3.08l-4.18,6a6,6,0,0,1-.95,1,2.37,2.37,0,0,1-1.54.45,2.61,2.61,0,0,1-1.25-.32,14,14,0,0,1-1.25-.76l-1.44-1a11.21,11.21,0,0,0-1.87-1,15.21,15.21,0,0,0-2.53-.77,16.92,16.92,0,0,0-3.4-.31,14.79,14.79,0,0,0-6.16,1.27,13.63,13.63,0,0,0-4.78,3.65,17.34,17.34,0,0,0-3.12,5.75A24.07,24.07,0,0,0,329.2,490a25.25,25.25,0,0,0,1.12,7.81,17.58,17.58,0,0,0,3,5.74,13,13,0,0,0,4.5,3.55,12.68,12.68,0,0,0,5.5,1.22,24.22,24.22,0,0,0,3.08-.18,11.88,11.88,0,0,0,2.58-.61,11.76,11.76,0,0,0,2.28-1.12,15.07,15.07,0,0,0,2.18-1.7,4.33,4.33,0,0,1,.95-.65A2.36,2.36,0,0,1,355.49,503.81Z"/><path class="cls-1" d="M421.17,518.59h-9.61a4.21,4.21,0,0,1-2.66-.81,4.17,4.17,0,0,1-1.45-2l-3.15-10H384l-3.16,10a4.37,4.37,0,0,1-1.43,2,4,4,0,0,1-2.6.88h-9.68l20.68-57.13h12.69Zm-34.32-21.84h14.59l-4.91-15.65c-.32-1-.7-2.16-1.12-3.51s-.85-2.8-1.27-4.37c-.39,1.6-.79,3.07-1.21,4.43s-.8,2.54-1.17,3.53Z"/><path class="cls-1" d="M437,461.54a3.27,3.27,0,0,1,1,.29,3.19,3.19,0,0,1,.85.61,9.13,9.13,0,0,1,.91,1.06l25.38,34.31c-.1-1.1-.17-2.17-.22-3.2s-.07-2-.07-2.92V461.46H475.8v57.13h-6.45a5.67,5.67,0,0,1-2.42-.47,5.32,5.32,0,0,1-1.91-1.73l-25.19-34c.07,1,.14,2,.18,2.92s.08,1.85.08,2.68v30.63H429.16V461.46h6.53A8.57,8.57,0,0,1,437,461.54Z"/><path class="cls-1" d="M527.07,461.46V472H512v46.62H499.64V472h-15V461.46Z"/><path class="cls-1" d="M549.43,518.59H537V461.46h12.46Z"/><path class="cls-1" d="M570.88,461.54a3.27,3.27,0,0,1,1,.29,3.19,3.19,0,0,1,.85.61,9.13,9.13,0,0,1,.91,1.06L599,497.81c-.1-1.1-.17-2.17-.22-3.2s-.07-2-.07-2.92V461.46h10.92v57.13h-6.45a5.67,5.67,0,0,1-2.42-.47,5.32,5.32,0,0,1-1.91-1.73l-25.19-34c.07,1,.14,2,.18,2.92s.08,1.85.08,2.68v30.63H563V461.46h6.53A8.65,8.65,0,0,1,570.88,461.54Z"/><path class="cls-1" d="M656.5,461.46v10.19H634.58V485h16.79v9.81H634.58v13.6H656.5v10.2H622.11V461.46Z"/></g></g></svg>