<svg width="84" height="45" viewBox="0 0 84 45" fill="none" xmlns="http://www.w3.org/2000/svg">
<g clip-path="url(#clip0)">
<path fill-rule="evenodd" clip-rule="evenodd" d="M7.69908 0H75.3778C79.6431 0 83.0769 3.43379 83.0769 7.69908V34.7446C83.0769 39.0099 79.6431 42.4437 75.3778 42.4437H7.69908C3.43379 42.4437 0 39.0099 0 34.7446V7.69908C0 3.43379 3.43379 0 7.69908 0Z" fill="white"/>
<path fill-rule="evenodd" clip-rule="evenodd" d="M57.6445 15.2994H73.168V40.3708H57.6445V15.2994Z" fill="#E63E11"/>
<path fill-rule="evenodd" clip-rule="evenodd" d="M12.437 15.2994H27.9605V40.3708H12.437V15.2994Z" fill="#038141"/>
<path fill-rule="evenodd" clip-rule="evenodd" d="M9.27825 15.2994H13.1544C16.3807 15.2994 18.9781 17.8968 18.9781 21.1231V34.5471C18.9781 37.7735 16.3807 40.3708 13.1544 40.3708H9.27825C6.05194 40.3708 3.45459 37.7735 3.45459 34.5471V21.1231C3.45459 17.8968 6.05194 15.2994 9.27825 15.2994Z" fill="#038141"/>
<path d="M9.17839 21.9792H11.5476L15.6938 33.3452H13.0044L12.1239 30.7999H8.58608L7.72163 33.3452H5.03223L9.17839 21.9792ZM11.6917 28.9909L10.363 24.9728L9.0023 28.9909H11.6917Z" fill="white" fill-opacity="0.446064"/>
<path fill-rule="evenodd" clip-rule="evenodd" d="M71.3647 15.2994H75.2409C78.4672 15.2994 81.0645 17.8968 81.0645 21.1231V34.5471C81.0645 37.7735 78.4672 40.3708 75.2409 40.3708H71.3647C68.1384 40.3708 65.541 37.7735 65.541 34.5471V21.1231C65.541 17.8968 68.1384 15.2994 71.3647 15.2994Z" fill="#E63E11"/>
<path d="M76.4599 31.04V33.3452H68.4717V21.9792H76.3158V24.2845H71.0971V26.4936H75.5794V28.6227H71.0971V31.04H76.4599Z" fill="white" fill-opacity="0.446064"/>
<path d="M6.66978 6.9763V10.2615H5.34277V4.51648H6.37849L9.05678 7.89064V4.51648H10.3838V10.2615H9.31571L6.66978 6.9763Z" fill="#7D7D7D"/>
<path d="M13.958 9.12864C14.1846 9.12864 14.3761 9.08279 14.5325 8.99109C14.6889 8.89399 14.8157 8.76722 14.9128 8.61079C15.0099 8.45435 15.0773 8.27634 15.1151 8.07674C15.1582 7.87176 15.1798 7.66408 15.1798 7.4537V4.51648H16.5068V7.4537C16.5068 7.85288 16.4556 8.22509 16.3531 8.57033C16.256 8.91557 16.1023 9.21765 15.8919 9.47658C15.6869 9.7355 15.4226 9.94049 15.0989 10.0915C14.7806 10.2372 14.4003 10.31 13.958 10.31C13.4995 10.31 13.1084 10.2318 12.7847 10.0753C12.4611 9.91891 12.1968 9.71123 11.9918 9.4523C11.7922 9.18798 11.6438 8.8832 11.5467 8.53796C11.455 8.19272 11.4092 7.8313 11.4092 7.4537V4.51648H12.7362V7.4537C12.7362 7.67487 12.7578 7.88525 12.8009 8.08484C12.8441 8.28443 12.9142 8.46244 13.0113 8.61888C13.1084 8.77531 13.2325 8.89938 13.3835 8.99109C13.5399 9.08279 13.7314 9.12864 13.958 9.12864Z" fill="#7D7D7D"/>
<path d="M21.9048 5.68166H20.1571V10.2615H18.8301V5.68166H17.0742V4.51648H21.9048V5.68166Z" fill="#7D7D7D"/>
<path d="M22.5527 10.2615V4.51648H25.142C25.4117 4.51648 25.6599 4.57312 25.8864 4.6864C26.1184 4.79968 26.318 4.94803 26.4852 5.13143C26.6524 5.31484 26.7819 5.52252 26.8736 5.75448C26.9707 5.98644 27.0192 6.22109 27.0192 6.45844C27.0192 6.63646 26.9977 6.80907 26.9545 6.9763C26.9114 7.13813 26.8493 7.29187 26.7684 7.43752C26.6875 7.58316 26.5877 7.71532 26.469 7.834C26.3557 7.94728 26.2263 8.04438 26.0806 8.12529L27.3429 10.2615H25.846L24.7455 8.4085H23.8797V10.2615H22.5527ZM23.8797 7.25141H25.0935C25.2499 7.25141 25.3848 7.17859 25.498 7.03294C25.6113 6.8819 25.668 6.6904 25.668 6.45844C25.668 6.22109 25.6032 6.03229 25.4738 5.89204C25.3443 5.75178 25.2041 5.68166 25.053 5.68166H23.8797V7.25141Z" fill="#7D7D7D"/>
<path d="M27.9736 10.2615V4.51648H29.3006V10.2615H27.9736Z" fill="#7D7D7D"/>
<path d="M30.2939 8.61891V7.45374H32.7861V8.61891H30.2939Z" fill="#7D7D7D"/>
<path d="M37.2207 6.1996C37.2045 6.17802 37.1479 6.13756 37.0508 6.07823C36.9537 6.01889 36.8323 5.95686 36.6867 5.89212C36.541 5.82739 36.3819 5.77075 36.2093 5.7222C36.0366 5.67365 35.864 5.64938 35.6914 5.64938C35.2167 5.64938 34.9794 5.80851 34.9794 6.12678C34.9794 6.22388 35.0036 6.30479 35.0522 6.36952C35.1061 6.43426 35.1816 6.49359 35.2787 6.54754C35.3812 6.59609 35.508 6.64194 35.659 6.68509C35.8101 6.72825 35.9854 6.7768 36.185 6.83074C36.4601 6.90626 36.7082 6.98987 36.9294 7.08158C37.1506 7.16789 37.3367 7.27847 37.4877 7.41333C37.6442 7.54279 37.7628 7.70193 37.8437 7.89073C37.9301 8.07953 37.9732 8.30609 37.9732 8.57041C37.9732 8.89407 37.9112 9.16919 37.7871 9.39575C37.6684 9.61692 37.5093 9.79763 37.3097 9.93788C37.1101 10.0727 36.8809 10.1725 36.6219 10.2373C36.363 10.2966 36.096 10.3263 35.8209 10.3263C35.6105 10.3263 35.3947 10.3101 35.1735 10.2777C34.9524 10.2454 34.7366 10.1995 34.5262 10.1402C34.3158 10.0754 34.1109 9.99992 33.9113 9.91361C33.7171 9.8273 33.5364 9.7275 33.3691 9.61422L33.9517 8.45713C33.9733 8.48411 34.0434 8.53535 34.1621 8.61087C34.2808 8.68639 34.4264 8.76191 34.599 8.83743C34.7771 8.91296 34.974 8.98038 35.1897 9.03972C35.4055 9.09906 35.624 9.12873 35.8451 9.12873C36.3145 9.12873 36.5491 8.98578 36.5491 8.69988C36.5491 8.59199 36.514 8.50299 36.4439 8.43286C36.3738 8.36273 36.2767 8.3007 36.1526 8.24675C36.0286 8.18742 35.8802 8.13347 35.7076 8.08492C35.5404 8.03638 35.357 7.98243 35.1574 7.92309C34.893 7.84218 34.6638 7.75587 34.4696 7.66417C34.2754 7.56707 34.1136 7.45648 33.9841 7.33241C33.86 7.20834 33.7656 7.06539 33.7009 6.90356C33.6416 6.74173 33.6119 6.55293 33.6119 6.33716C33.6119 6.03507 33.6685 5.76805 33.7818 5.5361C33.8951 5.30414 34.0488 5.10994 34.243 4.95351C34.4372 4.79168 34.6611 4.67031 34.9146 4.58939C35.1735 4.50848 35.446 4.46802 35.7319 4.46802C35.9315 4.46802 36.1283 4.4869 36.3225 4.52466C36.5167 4.56242 36.7028 4.61097 36.8809 4.67031C37.0589 4.72964 37.2234 4.79707 37.3744 4.87259C37.5309 4.94811 37.6738 5.02363 37.8033 5.09916L37.2207 6.1996Z" fill="#7D7D7D"/>
<path d="M38.4199 7.34044C38.4199 6.9952 38.4847 6.65266 38.6141 6.31281C38.7436 5.96758 38.9324 5.6601 39.1805 5.39038C39.4287 5.12066 39.7307 4.90219 40.0868 4.73497C40.4428 4.56774 40.8474 4.48413 41.3005 4.48413C41.8399 4.48413 42.3066 4.60011 42.7003 4.83207C43.0995 5.06402 43.3962 5.36611 43.5904 5.73832L42.5709 6.45037C42.5061 6.29933 42.4225 6.17526 42.32 6.07816C42.2229 5.97567 42.1151 5.89475 41.9964 5.83541C41.8777 5.77068 41.7563 5.72753 41.6323 5.70595C41.5082 5.67898 41.3868 5.66549 41.2681 5.66549C41.0146 5.66549 40.7934 5.71674 40.6046 5.81923C40.4158 5.92172 40.2594 6.05388 40.1353 6.21571C40.0113 6.37754 39.9196 6.56095 39.8602 6.76594C39.8009 6.97092 39.7712 7.1786 39.7712 7.38898C39.7712 7.61555 39.8063 7.83402 39.8764 8.0444C39.9465 8.25478 40.0463 8.44088 40.1758 8.60271C40.3106 8.76454 40.4698 8.89401 40.6532 8.9911C40.842 9.08281 41.0524 9.12866 41.2843 9.12866C41.403 9.12866 41.5244 9.11517 41.6484 9.0882C41.7779 9.05584 41.8993 9.00998 42.0126 8.95064C42.1312 8.88591 42.2391 8.805 42.3362 8.7079C42.4333 8.60541 42.5115 8.48134 42.5709 8.33569L43.6551 8.97492C43.5688 9.1853 43.4394 9.3741 43.2667 9.54133C43.0995 9.70855 42.9053 9.8488 42.6842 9.96208C42.463 10.0754 42.2283 10.1617 41.9802 10.221C41.7321 10.2804 41.4893 10.31 41.252 10.31C40.8366 10.31 40.4536 10.2264 40.103 10.0592C39.7577 9.88656 39.4583 9.66 39.2048 9.3795C38.9567 9.09899 38.7625 8.78072 38.6222 8.4247C38.4874 8.06867 38.4199 7.70725 38.4199 7.34043V7.34044Z" fill="#7D7D7D"/>
<path d="M46.7677 10.31C46.3415 10.31 45.9531 10.2264 45.6025 10.0592C45.2518 9.89196 44.9525 9.67349 44.7043 9.40377C44.4562 9.12866 44.262 8.81579 44.1217 8.46516C43.9869 8.11452 43.9194 7.7531 43.9194 7.38089C43.9194 7.00329 43.9896 6.63917 44.1298 6.28854C44.2755 5.93791 44.4751 5.63043 44.7286 5.36611C44.9875 5.09639 45.2923 4.88331 45.6429 4.72688C45.9936 4.56505 46.3766 4.48413 46.7919 4.48413C47.2181 4.48413 47.6065 4.56774 47.9571 4.73497C48.3077 4.90219 48.6071 5.12336 48.8553 5.39847C49.1034 5.67358 49.2949 5.98646 49.4298 6.33709C49.5646 6.68772 49.632 7.04375 49.632 7.40517C49.632 7.78277 49.5592 8.14689 49.4136 8.49752C49.2733 8.84815 49.0764 9.15833 48.8229 9.42804C48.5694 9.69237 48.2673 9.90544 47.9166 10.0673C47.566 10.2291 47.183 10.31 46.7677 10.31ZM45.2707 7.39707C45.2707 7.61824 45.3031 7.83402 45.3678 8.0444C45.4325 8.24938 45.527 8.43279 45.651 8.59462C45.7805 8.75645 45.9396 8.88591 46.1284 8.98301C46.3172 9.08011 46.533 9.12866 46.7757 9.12866C47.0293 9.12866 47.2504 9.07741 47.4392 8.97492C47.628 8.87243 47.7845 8.74027 47.9086 8.57844C48.0326 8.41121 48.1243 8.22511 48.1837 8.02012C48.2484 7.80974 48.2808 7.59667 48.2808 7.38089C48.2808 7.15972 48.2484 6.94665 48.1837 6.74166C48.1189 6.53128 48.0218 6.34788 47.8924 6.19144C47.7629 6.02961 47.6038 5.90284 47.415 5.81114C47.2316 5.71404 47.0185 5.66549 46.7757 5.66549C46.5222 5.66549 46.301 5.71674 46.1122 5.81923C45.9288 5.91633 45.7724 6.04579 45.6429 6.20762C45.5189 6.36945 45.4245 6.55556 45.3597 6.76594C45.3004 6.97092 45.2707 7.1813 45.2707 7.39707Z" fill="#7D7D7D"/>
<path d="M50.3989 10.2615V4.51648H52.9882C53.2579 4.51648 53.5061 4.57312 53.7326 4.6864C53.9646 4.79968 54.1642 4.94803 54.3314 5.13143C54.4986 5.31484 54.6281 5.52252 54.7198 5.75448C54.8169 5.98644 54.8654 6.22109 54.8654 6.45844C54.8654 6.63646 54.8439 6.80907 54.8007 6.9763C54.7576 7.13813 54.6955 7.29187 54.6146 7.43752C54.5337 7.58316 54.4339 7.71532 54.3152 7.834C54.2019 7.94728 54.0725 8.04438 53.9268 8.12529L55.1891 10.2615H53.6922L52.5917 8.4085H51.7259V10.2615H50.3989ZM51.7259 7.25141H52.9397C53.0961 7.25141 53.231 7.17859 53.3442 7.03294C53.4575 6.8819 53.5142 6.6904 53.5142 6.45844C53.5142 6.22109 53.4494 6.03229 53.32 5.89204C53.1905 5.75178 53.0502 5.68166 52.8992 5.68166H51.7259V7.25141Z" fill="#7D7D7D"/>
<path d="M59.8575 9.09627V10.2615H55.8198V4.51648H59.7847V5.68166H57.1468V6.79829H59.4124V7.87446H57.1468V9.09627H59.8575Z" fill="#7D7D7D"/>
<path fill-rule="evenodd" clip-rule="evenodd" d="M19.5024 15.2994H35.0259V40.3708H19.5024V15.2994Z" fill="#EE8100"/>
<path fill-rule="evenodd" clip-rule="evenodd" d="M50.0439 15.2994H65.5674V40.3708H50.0439V15.2994Z" fill="#EE8100"/>
<path d="M52.8511 33.3452V21.9792H57.0933C58.0325 21.9792 58.8542 22.1287 59.5586 22.4275C60.263 22.7263 60.8499 23.1319 61.3195 23.6441C61.7998 24.1564 62.1573 24.7594 62.3921 25.4531C62.6376 26.1361 62.7603 26.8671 62.7603 27.6462C62.7603 28.5107 62.6269 29.2951 62.3601 29.9995C62.0932 30.6931 61.709 31.2908 61.2075 31.7924C60.7165 32.2833 60.1189 32.6675 59.4145 32.945C58.7208 33.2118 57.9471 33.3452 57.0933 33.3452H52.8511ZM60.0869 27.6462C60.0869 27.1446 60.0175 26.691 59.8788 26.2855C59.7507 25.8693 59.5586 25.5118 59.3025 25.2129C59.0463 24.9141 58.7315 24.6847 58.358 24.5246C57.9844 24.3645 57.5629 24.2845 57.0933 24.2845H55.4765V31.04H57.0933C57.5736 31.04 58.0004 30.9546 58.374 30.7839C58.7475 30.6131 59.057 30.3783 59.3025 30.0795C59.5586 29.77 59.7507 29.4125 59.8788 29.0069C60.0175 28.5907 60.0869 28.1371 60.0869 27.6462Z" fill="white" fill-opacity="0.446064"/>
<path fill-rule="evenodd" clip-rule="evenodd" d="M33.6797 15.2994H50.0709V40.3708H33.6797V15.2994Z" fill="#FECB02"/>
<path fill-rule="evenodd" clip-rule="evenodd" d="M34.4752 15.2994H18.9517V40.3708H34.4752V15.2994Z" fill="#85BB2F"/>
<path d="M36.6963 27.47C36.6963 26.787 36.8244 26.1093 37.0805 25.437C37.3366 24.754 37.7102 24.1456 38.2011 23.612C38.692 23.0784 39.2897 22.6462 39.994 22.3154C40.6984 21.9845 41.4988 21.8191 42.3953 21.8191C43.4625 21.8191 44.3856 22.0485 45.1647 22.5075C45.9545 22.9664 46.5414 23.564 46.9256 24.3004L44.9086 25.7091C44.7805 25.4103 44.6151 25.1648 44.4123 24.9727C44.2202 24.77 44.0068 24.6099 43.772 24.4925C43.5372 24.3644 43.2971 24.279 43.0516 24.2364C42.8062 24.183 42.566 24.1563 42.3312 24.1563C41.8296 24.1563 41.3921 24.2577 41.0186 24.4605C40.645 24.6632 40.3355 24.9247 40.0901 25.2449C39.8446 25.5651 39.6632 25.9279 39.5458 26.3335C39.4284 26.739 39.3697 27.1499 39.3697 27.5661C39.3697 28.0143 39.4391 28.4466 39.5778 28.8628C39.7165 29.279 39.914 29.6472 40.1701 29.9674C40.4369 30.2875 40.7517 30.5437 41.1146 30.7358C41.4881 30.9172 41.9044 31.0079 42.3633 31.0079C42.598 31.0079 42.8382 30.9812 43.0836 30.9279C43.3398 30.8638 43.5799 30.7731 43.804 30.6557C44.0388 30.5277 44.2522 30.3676 44.4443 30.1755C44.6364 29.9727 44.7912 29.7272 44.9086 29.4391L47.0537 30.7037C46.883 31.12 46.6268 31.4935 46.2853 31.8243C45.9545 32.1552 45.5703 32.4326 45.1327 32.6568C44.6951 32.8809 44.2309 33.0516 43.74 33.169C43.2491 33.2864 42.7688 33.3451 42.2992 33.3451C41.4775 33.3451 40.7197 33.1797 40.026 32.8489C39.343 32.5073 38.7507 32.0591 38.2491 31.5042C37.7582 30.9492 37.374 30.3195 37.0965 29.6152C36.8297 28.9108 36.6963 28.1958 36.6963 27.47Z" fill="white" fill-opacity="0.446064"/>
<path d="M32.2382 30.4317C32.2382 30.9226 32.1368 31.3495 31.9341 31.7123C31.7313 32.0752 31.4538 32.3794 31.1016 32.6248C30.7495 32.8596 30.3386 33.041 29.869 33.1691C29.3994 33.2865 28.9032 33.3452 28.3802 33.3452H22.8413V21.9792H29.1646C29.5595 21.9792 29.917 22.0646 30.2372 22.2354C30.5573 22.4061 30.8295 22.6303 31.0536 22.9077C31.2777 23.1745 31.4485 23.484 31.5659 23.8362C31.6939 24.1777 31.758 24.5299 31.758 24.8928C31.758 25.4371 31.6192 25.9493 31.3418 26.4296C31.075 26.9098 30.6694 27.2727 30.1251 27.5182C30.7761 27.7103 31.2884 28.0518 31.6619 28.5427C32.0461 29.0336 32.2382 29.6633 32.2382 30.4317ZM29.5648 29.9034C29.5648 29.5512 29.4634 29.2524 29.2607 29.0069C29.0579 28.7615 28.8018 28.6387 28.4923 28.6387H25.4667V31.12H28.3802C28.7217 31.12 29.0045 31.008 29.2287 30.7839C29.4528 30.5597 29.5648 30.2663 29.5648 29.9034ZM25.4667 24.2204V26.5737H28.044C28.3322 26.5737 28.5883 26.4776 28.8124 26.2855C29.0366 26.0934 29.1486 25.7946 29.1486 25.389C29.1486 25.0155 29.0472 24.7274 28.8445 24.5246C28.6524 24.3218 28.4176 24.2204 28.1401 24.2204H25.4667Z" fill="white" fill-opacity="0.446064"/>
<path fill-rule="evenodd" clip-rule="evenodd" d="M9.69471 12.0421H11.3763C16.0244 12.0421 19.7664 15.7841 19.7664 20.4321V35.1394C19.7664 39.7874 16.0244 43.5294 11.3763 43.5294H9.69471C5.04664 43.5294 1.30469 39.7874 1.30469 35.1394V20.4321C1.30469 15.7841 5.04664 12.0421 9.69471 12.0421Z" fill="#0039FF" fill-opacity="0.629738"/>
<path fill-rule="evenodd" clip-rule="evenodd" d="M9.69492 13.3471C5.76751 13.3471 2.60978 16.5048 2.60978 20.4322V35.1394C2.60978 39.0668 5.76751 42.2246 9.69492 42.2246H11.3765C15.304 42.2246 18.4617 39.0668 18.4617 35.1394V20.4322C18.4617 16.5048 15.304 13.3471 11.3765 13.3471H9.69492ZM9.69492 10.7373C4.32617 10.7373 0 15.0635 0 20.4322V35.1394C0 40.5082 4.32617 44.8344 9.69492 44.8344H11.3765C16.7453 44.8344 21.0715 40.5082 21.0715 35.1394V20.4322C21.0715 15.0635 16.7453 10.7373 11.3765 10.7373H9.69492Z" fill="white"/>
<path fill-rule="evenodd" clip-rule="evenodd" d="M9.69471 12.0421H11.3763C16.0244 12.0421 19.7664 15.7841 19.7664 20.4321V35.1394C19.7664 39.7874 16.0244 43.5294 11.3763 43.5294H9.69471C5.04664 43.5294 1.30469 39.7874 1.30469 35.1394V20.4321C1.30469 15.7841 5.04664 12.0421 9.69471 12.0421Z" fill="#038141"/>
<path d="M9.10313 20.6002H11.9684L16.9827 35.5853H13.7302L12.6654 32.2295H8.3868L7.34136 35.5853H4.08887L9.10313 20.6002ZM12.1427 29.8445L10.5358 24.547L8.89017 29.8445H12.1427Z" fill="white"/>
</g>
<defs>
<clipPath id="clip0">
<rect width="83.0769" height="45" fill="white"/>
</clipPath>
</defs>
</svg>
